<?xml version="1.0" encoding="UTF-8"?>
<!DOCTYPE svg PUBLIC "-//W3C//DTD SVG 1.1//EN" "http://www.w3.org/Graphics/SVG/1.1/DTD/svg11.dtd">
<svg xmlns="http://www.w3.org/2000/svg" version="1.1" width="5609px" height="5609px" style="shape-rendering:geometricPrecision; text-rendering:geometricPrecision; image-rendering:optimizeQuality; fill-rule:evenodd; clip-rule:evenodd" xmlns:xlink="http://www.w3.org/1999/xlink">
<g><path style="opacity:1" fill="#000000" d="M 1788.5,988.5 C 1789.5,1723.67 1789.83,2459 1789.5,3194.5C 1794.18,3194.67 1798.85,3194.5 1803.5,3194C 2057.74,2871.51 2311.74,2548.85 2565.5,2226C 2884.5,2225.33 3203.5,2225.33 3522.5,2226C 3215.26,2585.81 2908.26,2945.81 2601.5,3306C 2921.5,3742.67 3241.5,4179.33 3561.5,4616C 3236.17,4616.67 2910.83,4616.67 2585.5,4616C 2324.83,4234 2064.17,3852 1803.5,3470C 1798.85,3469.5 1794.18,3469.33 1789.5,3469.5C 1789.5,3851.83 1789.5,4234.17 1789.5,4616.5C 1525.17,4616.5 1260.83,4616.5 996.5,4616.5C 996.333,3671.17 996.5,2725.83 997,1780.5C 1261.03,1516.63 1524.87,1252.63 1788.5,988.5 Z"/></g>
<g><path style="opacity:1" fill="#000000" d="M 3826.5,988.5 C 4089.17,988.5 4351.83,988.5 4614.5,988.5C 4614.5,1252.5 4614.5,1516.5 4614.5,1780.5C 4351.83,1780.5 4089.17,1780.5 3826.5,1780.5C 3826.5,1516.5 3826.5,1252.5 3826.5,988.5 Z"/></g>
<g><path style="opacity:1" fill="#000000" d="M 3826.5,2225.5 C 4089.17,2225.5 4351.83,2225.5 4614.5,2225.5C 4614.67,2760.83 4614.5,3296.17 4614,3831.5C 4352.5,4093 4091,4354.5 3829.5,4616C 3828.55,4616.48 3827.55,4616.65 3826.5,4616.5C 3826.5,3819.5 3826.5,3022.5 3826.5,2225.5 Z"/></g>
</svg>
